<svg xmlns="http://www.w3.org/2000/svg" xmlns:xlink="http://www.w3.org/1999/xlink" width="205.358" height="165.782" viewBox="0 0 205.358 165.782">
  <defs>
    <filter id="Ellipse_482" x="41.322" y="122.746" width="120" height="35" filterUnits="userSpaceOnUse">
      <feOffset dy="3" input="SourceAlpha"/>
      <feGaussianBlur stdDeviation="3" result="blur"/>
      <feFlood flood-opacity="0.161"/>
      <feComposite operator="in" in2="blur"/>
      <feComposite in="SourceGraphic"/>
    </filter>
  </defs>
  <g id="Group_173" data-name="Group 173" transform="translate(6540.322 4949.746)">
    <g transform="matrix(1, 0, 0, 1, -6540.32, -4949.75)" filter="url(#Ellipse_482)">
      <ellipse id="Ellipse_482-2" data-name="Ellipse 482" cx="51" cy="8.5" rx="51" ry="8.5" transform="translate(50.32 128.75)" fill="#1e344a"/>
    </g>
    <g id="Group_164" data-name="Group 164" transform="translate(-3038 123)">
      <g id="Group_171" data-name="Group 171" transform="matrix(0.259, 0.966, -0.966, 0.259, -7285.058, -261.361)">
        <path id="Path_3019" data-name="Path 3019" d="M-3535.11-5051.473s.506,10.45,9.433,10.374,11.385-10.374,11.385-10.374h9.634v73.915h-10.866s.262-10.66-10.153-10.079-9.433,11.068-9.433,11.068h-10.231v-74.9Z" fill="#ff4b8d"/>
        <g id="noun_movie_ticket_1614516" data-name="noun_movie ticket_1614516" transform="translate(-4257.716 -5687.52) rotate(-45)">
          <path id="Path_3018" data-name="Path 3018" d="M0,1005.952l.648.647,7.215,7.215.648.648.648-.648A9.223,9.223,0,0,1,22.2,1026.858l-.648.647.648.647,7.215,7.215.648.647.648-.647,52.357-52.357.648-.648-.648-.648L75.853,974.5l-.648-.648-.648.648a9.223,9.223,0,0,1-13.043-13.043l.648-.648-.648-.647L54.3,952.948l-.648-.648-.648.648L.648,1005.3l-.648.647Zm2.59,0,34.689-34.689,4.533,4.533,1.3-1.3-4.533-4.533,15.078-14.985L59.665,961a10.885,10.885,0,0,0,.555,14.893,11.077,11.077,0,0,0,14.893.555l6.013,6.013L66.048,997.534,61.515,993l-1.3,1.295,4.533,4.533-34.689,34.6-6.013-6.013A10.954,10.954,0,0,0,8.6,1011.965l-6.013-6.013Zm25.531-16.281,3.608,8.51-6.29,7.123,9.343-1.018,4.625,8.048,2.128-9.158,9.158-2.128-8.048-4.625,1.018-9.343-7.123,6.29-8.418-3.7Zm16.373-11.193,5.273,5.273,1.3-1.3-5.273-5.273Zm7.863,7.863,5.273,5.273,1.3-1.3-5.273-5.273Z" transform="translate(0 0)"/>
        </g>
      </g>
      <g id="Group_161" data-name="Group 161" transform="translate(-4419.024 1047.044) rotate(45)">
        <path id="Path_3019-2" data-name="Path 3019" d="M-3535.11-5051.473s.506,10.45,9.433,10.374,11.385-10.374,11.385-10.374h9.634v73.915h-10.866s.262-10.66-10.153-10.079-9.433,11.068-9.433,11.068h-10.231v-74.9Z" fill="#ff4b8d"/>
        <g id="noun_movie_ticket_1614516-2" data-name="noun_movie ticket_1614516" transform="translate(-4257.716 -5687.52) rotate(-45)">
          <path id="Path_3018-2" data-name="Path 3018" d="M0,1005.952l.648.647,7.215,7.215.648.648.648-.648A9.223,9.223,0,0,1,22.2,1026.858l-.648.647.648.647,7.215,7.215.648.647.648-.647,52.357-52.357.648-.648-.648-.648L75.853,974.5l-.648-.648-.648.648a9.223,9.223,0,0,1-13.043-13.043l.648-.648-.648-.647L54.3,952.948l-.648-.648-.648.648L.648,1005.3l-.648.647Zm2.59,0,34.689-34.689,4.533,4.533,1.3-1.3-4.533-4.533,15.078-14.985L59.665,961a10.885,10.885,0,0,0,.555,14.893,11.077,11.077,0,0,0,14.893.555l6.013,6.013L66.048,997.534,61.515,993l-1.3,1.295,4.533,4.533-34.689,34.6-6.013-6.013A10.954,10.954,0,0,0,8.6,1011.965l-6.013-6.013Zm25.531-16.281,3.608,8.51-6.29,7.123,9.343-1.018,4.625,8.048,2.128-9.158,9.158-2.128-8.048-4.625,1.018-9.343-7.123,6.29-8.418-3.7Zm16.373-11.193,5.273,5.273,1.3-1.3-5.273-5.273Zm7.863,7.863,5.273,5.273,1.3-1.3-5.273-5.273Z" transform="translate(0 0)"/>
        </g>
      </g>
      <g id="Group_160" data-name="Group 160" transform="translate(120.593 0.593)">
        <path id="Path_3019-3" data-name="Path 3019" d="M-3533.865-5051.473s.568,11.722,10.581,11.636,12.77-11.636,12.77-11.636h10.806v82.91H-3511.9s.294-11.958-11.388-11.306-10.581,12.416-10.581,12.416h-11.476v-84.02Z" transform="translate(4.746 2.661)" fill="#ff4b8d"/>
        <g id="noun_movie_ticket_1614516-3" data-name="noun_movie ticket_1614516" transform="translate(-3584.338 -5006.939) rotate(-45)">
          <path id="Path_3018-3" data-name="Path 3018" d="M0,60.181l.726.726L8.82,69l.726.726L10.272,69A10.345,10.345,0,1,1,24.9,83.631l-.726.726.726.726L33,93.177l.726.726.726-.726L93.177,34.449l.726-.726L93.177,33,85.083,24.9l-.726-.726-.726.726A10.345,10.345,0,0,1,69,10.272l.726-.726L69,8.82,60.907.727,60.181,0l-.726.727L.726,59.455,0,60.181Zm2.905,0,38.91-38.91L46.9,26.355,48.352,24.9l-5.084-5.084L60.181,3.009l6.744,6.744a12.21,12.21,0,0,0,.623,16.705,12.425,12.425,0,0,0,16.705.622L91,33.826,74.085,50.739,69,45.655l-1.453,1.453,5.084,5.084L33.722,91l-6.744-6.745A12.287,12.287,0,0,0,9.65,66.926L2.905,60.181ZM31.543,41.919l4.047,9.546-7.056,7.989,10.48-1.141L44.2,67.341l2.386-10.272,10.272-2.386-9.027-5.188,1.141-10.48-7.99,7.056-9.442-4.151ZM49.909,29.364l5.914,5.914,1.453-1.453-5.914-5.914Zm8.82,8.82L64.643,44.1,66.1,42.646l-5.914-5.914Z" transform="translate(0 0)"/>
        </g>
      </g>
      <g id="Group_163" data-name="Group 163" transform="translate(2608.043 -3941.26) rotate(-45)">
        <path id="Path_3019-4" data-name="Path 3019" d="M-3535.11-5051.473s.506,10.45,9.433,10.374,11.385-10.374,11.385-10.374h9.634v73.915h-10.866s.262-10.66-10.153-10.079-9.433,11.068-9.433,11.068h-10.231v-74.9Z" fill="#ff4b8d"/>
        <g id="noun_movie_ticket_1614516-4" data-name="noun_movie ticket_1614516" transform="translate(-4257.716 -5687.52) rotate(-45)">
          <path id="Path_3018-4" data-name="Path 3018" d="M0,1005.952l.648.647,7.215,7.215.648.648.648-.648A9.223,9.223,0,0,1,22.2,1026.858l-.648.647.648.647,7.215,7.215.648.647.648-.647,52.357-52.357.648-.648-.648-.648L75.853,974.5l-.648-.648-.648.648a9.223,9.223,0,0,1-13.043-13.043l.648-.648-.648-.647L54.3,952.948l-.648-.648-.648.648L.648,1005.3l-.648.647Zm2.59,0,34.689-34.689,4.533,4.533,1.3-1.3-4.533-4.533,15.078-14.985L59.665,961a10.885,10.885,0,0,0,.555,14.893,11.077,11.077,0,0,0,14.893.555l6.013,6.013L66.048,997.534,61.515,993l-1.3,1.295,4.533,4.533-34.689,34.6-6.013-6.013A10.954,10.954,0,0,0,8.6,1011.965l-6.013-6.013Zm25.531-16.281,3.608,8.51-6.29,7.123,9.343-1.018,4.625,8.048,2.128-9.158,9.158-2.128-8.048-4.625,1.018-9.343-7.123,6.29-8.418-3.7Zm16.373-11.193,5.273,5.273,1.3-1.3-5.273-5.273Zm7.863,7.863,5.273,5.273,1.3-1.3-5.273-5.273Z" transform="translate(0 0)"/>
        </g>
      </g>
      <g id="Group_170" data-name="Group 170" transform="matrix(0.259, -0.966, 0.966, 0.259, 2310.521, -7071.413)">
        <path id="Path_3019-5" data-name="Path 3019" d="M-3535.11-5051.473s.506,10.45,9.433,10.374,11.385-10.374,11.385-10.374h9.634v73.915h-10.866s.262-10.66-10.153-10.079-9.433,11.068-9.433,11.068h-10.231v-74.9Z" fill="#ff4b8d"/>
        <g id="noun_movie_ticket_1614516-5" data-name="noun_movie ticket_1614516" transform="translate(-4257.716 -5687.52) rotate(-45)">
          <path id="Path_3018-5" data-name="Path 3018" d="M0,1005.952l.648.647,7.215,7.215.648.648.648-.648A9.223,9.223,0,0,1,22.2,1026.858l-.648.647.648.647,7.215,7.215.648.647.648-.647,52.357-52.357.648-.648-.648-.648L75.853,974.5l-.648-.648-.648.648a9.223,9.223,0,0,1-13.043-13.043l.648-.648-.648-.647L54.3,952.948l-.648-.648-.648.648L.648,1005.3l-.648.647Zm2.59,0,34.689-34.689,4.533,4.533,1.3-1.3-4.533-4.533,15.078-14.985L59.665,961a10.885,10.885,0,0,0,.555,14.893,11.077,11.077,0,0,0,14.893.555l6.013,6.013L66.048,997.534,61.515,993l-1.3,1.295,4.533,4.533-34.689,34.6-6.013-6.013A10.954,10.954,0,0,0,8.6,1011.965l-6.013-6.013Zm25.531-16.281,3.608,8.51-6.29,7.123,9.343-1.018,4.625,8.048,2.128-9.158,9.158-2.128-8.048-4.625,1.018-9.343-7.123,6.29-8.418-3.7Zm16.373-11.193,5.273,5.273,1.3-1.3-5.273-5.273Zm7.863,7.863,5.273,5.273,1.3-1.3-5.273-5.273Z" transform="translate(0 0)"/>
        </g>
      </g>
    </g>
  </g>
</svg>
